PathFileType	4	(X/Y/Z)	C:\Users\italobelli\Desktop\GitHub\PTbot_officialCBL\Personal_Results\SHRUG23_noisy1.trc
DataRate	CameraRate	NumFrames	NumMarkers	Units	OrigDataRate	OrigDataStartFrame	OrigNumFrames
108.909091	108.909091	34	9	m	108.909091	76	600
Frame#	Time		gu		centelbow		EpL		centpxt8		centijc7		ij		ts		aa		ai
			X1	Y1	Z1	X2	Y2	Z2	X3	Y3	Z3	X4	Y4	Z4	X5	Y5	Z5	X6	Y6	Z6	X7	Y7	Z7	X8	Y8	Z8	X9	Y9	Z9

76	0.68865	-0.10095	-0.0097533	0.16107	-0.17487	-0.25702	0.17766	-0.16014	-0.25457	0.20631	-0.046816	-0.15316	-0.008669	-0.046816	0.031938	-0.008669	0	0	0	-0.1353	0.039573	0.044424	-0.12244	0.029543	0.1626	-0.16802	-0.069082	0.043934
77	0.69783	-0.10094	-0.0097535	0.16109	-0.17475	-0.2569	0.17761	-0.16002	-0.25445	0.20626	-0.046816	-0.15316	-0.008669	-0.046816	0.031938	-0.008669	0	0	0	-0.13532	0.03956	0.044429	-0.12244	0.029533	0.16261	-0.16803	-0.069095	0.043943
78	0.70701	-0.10093	-0.0097536	0.16111	-0.17463	-0.25678	0.17755	-0.15989	-0.25432	0.2062	-0.046816	-0.15316	-0.008669	-0.046816	0.031938	-0.008669	0	0	0	-0.13533	0.039546	0.044433	-0.12243	0.029523	0.16261	-0.16803	-0.069108	0.043952
79	0.71619	-0.10092	-0.0097537	0.16113	-0.17449	-0.25665	0.1775	-0.15975	-0.2542	0.20614	-0.046816	-0.15316	-0.008669	-0.046816	0.031938	-0.008669	0	0	0	-0.13534	0.039533	0.044438	-0.12242	0.029513	0.16262	-0.16803	-0.069121	0.043962
80	0.72538	-0.10091	-0.0097537	0.16115	-0.17434	-0.25651	0.17745	-0.1596	-0.25406	0.20609	-0.046816	-0.15316	-0.008669	-0.046816	0.031938	-0.008669	0	0	0	-0.13535	0.039519	0.044442	-0.12242	0.029503	0.16262	-0.16804	-0.069135	0.043971
81	0.73456	-0.1009	-0.0097537	0.16117	-0.17419	-0.25637	0.17739	-0.15945	-0.25392	0.20603	-0.046816	-0.15316	-0.008669	-0.046816	0.031938	-0.008669	0	0	0	-0.13537	0.039505	0.044446	-0.12241	0.029493	0.16263	-0.16804	-0.069149	0.04398
82	0.74374	-0.10089	-0.0097536	0.16119	-0.17402	-0.25623	0.17734	-0.15928	-0.25378	0.20597	-0.046816	-0.15316	-0.008669	-0.046816	0.031938	-0.008669	0	0	0	-0.13538	0.039491	0.04445	-0.1224	0.029482	0.16263	-0.16804	-0.069163	0.043989
83	0.75292	-0.10088	-0.0097534	0.16122	-0.17384	-0.25608	0.17728	-0.1591	-0.25363	0.20592	-0.046816	-0.15316	-0.008669	-0.046816	0.031938	-0.008669	0	0	0	-0.13539	0.039477	0.044454	-0.12239	0.029472	0.16263	-0.16804	-0.069178	0.043998
84	0.7621	-0.10087	-0.0097532	0.16124	-0.17366	-0.25593	0.17723	-0.15891	-0.25347	0.20586	-0.046816	-0.15316	-0.008669	-0.046816	0.031938	-0.008669	0	0	0	-0.1354	0.039463	0.044457	-0.12239	0.029461	0.16264	-0.16804	-0.069193	0.044007
85	0.77129	-0.10086	-0.0097529	0.16126	-0.17346	-0.25577	0.17718	-0.15872	-0.25331	0.20581	-0.046816	-0.15316	-0.008669	-0.046816	0.031938	-0.008669	0	0	0	-0.13542	0.039449	0.04446	-0.12238	0.029451	0.16264	-0.16804	-0.069208	0.044016
86	0.78047	-0.10085	-0.0097526	0.16128	-0.17326	-0.2556	0.17713	-0.15851	-0.25315	0.20576	-0.046816	-0.15316	-0.008669	-0.046816	0.031938	-0.008669	0	0	0	-0.13543	0.039435	0.044463	-0.12237	0.029441	0.16264	-0.16804	-0.069224	0.044025
87	0.78965	-0.10084	-0.0097523	0.1613	-0.17305	-0.25544	0.17708	-0.1583	-0.25298	0.2057	-0.046816	-0.15316	-0.008669	-0.046816	0.031938	-0.008669	0	0	0	-0.13544	0.039421	0.044465	-0.12236	0.029431	0.16264	-0.16804	-0.06924	0.044034
88	0.79883	-0.10083	-0.0097518	0.16132	-0.17282	-0.25527	0.17703	-0.15808	-0.2528	0.20565	-0.046816	-0.15316	-0.008669	-0.046816	0.031938	-0.008669	0	0	0	-0.13545	0.039407	0.044467	-0.12236	0.029421	0.16264	-0.16804	-0.069256	0.044042
89	0.80801	-0.10082	-0.0097513	0.16134	-0.17259	-0.25509	0.17698	-0.15784	-0.25262	0.2056	-0.046816	-0.15316	-0.008669	-0.046816	0.031938	-0.008669	0	0	0	-0.13546	0.039394	0.044469	-0.12235	0.029411	0.16264	-0.16804	-0.069273	0.044051
90	0.8172	-0.10081	-0.0097508	0.16136	-0.17235	-0.25491	0.17693	-0.15761	-0.25244	0.20555	-0.046816	-0.15316	-0.008669	-0.046816	0.031938	-0.008669	0	0	0	-0.13548	0.03938	0.044471	-0.12235	0.029401	0.16264	-0.16804	-0.069289	0.044059
91	0.82638	-0.10081	-0.0097502	0.16137	-0.17211	-0.25472	0.17688	-0.15736	-0.25225	0.2055	-0.046816	-0.15316	-0.008669	-0.046816	0.031938	-0.008669	0	0	0	-0.13549	0.039367	0.044472	-0.12234	0.029392	0.16264	-0.16803	-0.069307	0.044067
92	0.83556	-0.1008	-0.0097495	0.16139	-0.17185	-0.25453	0.17684	-0.1571	-0.25206	0.20545	-0.046816	-0.15316	-0.008669	-0.046816	0.031938	-0.008669	0	0	0	-0.1355	0.039353	0.044473	-0.12234	0.029383	0.16264	-0.16803	-0.069324	0.044075
93	0.84474	-0.10079	-0.0097488	0.1614	-0.17158	-0.25434	0.17679	-0.15684	-0.25186	0.2054	-0.046816	-0.15316	-0.008669	-0.046816	0.031938	-0.008669	0	0	0	-0.13551	0.03934	0.044473	-0.12234	0.029374	0.16264	-0.16802	-0.069342	0.044083
94	0.85392	-0.10079	-0.009748	0.16142	-0.17131	-0.25414	0.17675	-0.15657	-0.25166	0.20536	-0.046816	-0.15316	-0.008669	-0.046816	0.031938	-0.008669	0	0	0	-0.13552	0.039327	0.044473	-0.12233	0.029365	0.16264	-0.16802	-0.069359	0.044091
95	0.86311	-0.10078	-0.0097472	0.16143	-0.17103	-0.25394	0.17671	-0.15629	-0.25145	0.20531	-0.046816	-0.15316	-0.008669	-0.046816	0.031938	-0.008669	0	0	0	-0.13553	0.039314	0.044473	-0.12233	0.029357	0.16264	-0.16801	-0.069378	0.044098
96	0.87229	-0.10078	-0.0097463	0.16144	-0.17074	-0.25374	0.17667	-0.156	-0.25124	0.20527	-0.046816	-0.15316	-0.008669	-0.046816	0.031938	-0.008669	0	0	0	-0.13554	0.039302	0.044473	-0.12233	0.029349	0.16264	-0.16801	-0.069396	0.044105
97	0.88147	-0.10078	-0.0097454	0.16144	-0.17044	-0.25353	0.17663	-0.15571	-0.25103	0.20523	-0.046816	-0.15316	-0.008669	-0.046816	0.031938	-0.008669	0	0	0	-0.13555	0.039289	0.044472	-0.12234	0.029342	0.16264	-0.168	-0.069415	0.044112
98	0.89065	-0.10078	-0.0097444	0.16145	-0.17014	-0.25331	0.17659	-0.15541	-0.25081	0.20519	-0.046816	-0.15316	-0.008669	-0.046816	0.031938	-0.008669	0	0	0	-0.13556	0.039277	0.044471	-0.12234	0.029335	0.16263	-0.168	-0.069433	0.044119
99	0.89983	-0.10078	-0.0097433	0.16145	-0.16983	-0.2531	0.17656	-0.1551	-0.25059	0.20516	-0.046816	-0.15316	-0.008669	-0.046816	0.031938	-0.008669	0	0	0	-0.13556	0.039266	0.04447	-0.12234	0.029328	0.16263	-0.16799	-0.069452	0.044125
100	0.90902	-0.10078	-0.0097422	0.16145	-0.16951	-0.25287	0.17653	-0.15478	-0.25036	0.20512	-0.046816	-0.15316	-0.008669	-0.046816	0.031938	-0.008669	0	0	0	-0.13557	0.039254	0.044468	-0.12235	0.029322	0.16263	-0.16798	-0.069472	0.044131
101	0.9182	-0.10078	-0.009741	0.16145	-0.16918	-0.25265	0.1765	-0.15446	-0.25013	0.20509	-0.046816	-0.15316	-0.008669	-0.046816	0.031938	-0.008669	0	0	0	-0.13558	0.039243	0.044466	-0.12236	0.029317	0.16262	-0.16797	-0.069491	0.044137
102	0.92738	-0.10078	-0.0097398	0.16144	-0.16885	-0.25242	0.17647	-0.15413	-0.24989	0.20506	-0.046816	-0.15316	-0.008669	-0.046816	0.031938	-0.008669	0	0	0	-0.13559	0.039233	0.044463	-0.12237	0.029312	0.16262	-0.16796	-0.069511	0.044143
103	0.93656	-0.10079	-0.0097385	0.16144	-0.16851	-0.25219	0.17644	-0.15379	-0.24965	0.20503	-0.046816	-0.15316	-0.008669	-0.046816	0.031938	-0.008669	0	0	0	-0.13559	0.039222	0.04446	-0.12238	0.029308	0.16261	-0.16795	-0.069531	0.044148
104	0.94574	-0.1008	-0.0097372	0.16143	-0.16816	-0.25195	0.17642	-0.15345	-0.24941	0.20501	-0.046816	-0.15316	-0.008669	-0.046816	0.031938	-0.008669	0	0	0	-0.1356	0.039212	0.044457	-0.12239	0.029304	0.16261	-0.16794	-0.069551	0.044153
105	0.95492	-0.10081	-0.0097358	0.16141	-0.1678	-0.25171	0.17639	-0.1531	-0.24917	0.20498	-0.046816	-0.15316	-0.008669	-0.046816	0.031938	-0.008669	0	0	0	-0.1356	0.039203	0.044453	-0.12241	0.029301	0.1626	-0.16793	-0.069571	0.044157
106	0.96411	-0.10082	-0.0097343	0.1614	-0.16744	-0.25147	0.17637	-0.15274	-0.24891	0.20496	-0.046816	-0.15316	-0.008669	-0.046816	0.031938	-0.008669	0	0	0	-0.13561	0.039194	0.044449	-0.12243	0.029299	0.16259	-0.16792	-0.069591	0.044161
107	0.97329	-0.10083	-0.0097328	0.16138	-0.16707	-0.25122	0.17636	-0.15238	-0.24866	0.20495	-0.046816	-0.15316	-0.008669	-0.046816	0.031938	-0.008669	0	0	0	-0.13561	0.039186	0.044444	-0.12245	0.029297	0.16258	-0.16791	-0.069612	0.044165
108	0.98247	-0.10085	-0.0097312	0.16135	-0.1667	-0.25098	0.17634	-0.15201	-0.2484	0.20493	-0.046816	-0.15316	-0.008669	-0.046816	0.031938	-0.008669	0	0	0	-0.13562	0.039178	0.044439	-0.12247	0.029296	0.16258	-0.1679	-0.069632	0.044169
109	0.99165	-0.10086	-0.0097295	0.16133	-0.16632	-0.25072	0.17633	-0.15164	-0.24814	0.20492	-0.046816	-0.15316	-0.008669	-0.046816	0.031938	-0.008669	0	0	0	-0.13562	0.03917	0.044434	-0.1225	0.029296	0.16257	-0.16788	-0.069653	0.044172
